<svg height="16" width="16" xmlns="http://www.w3.org/2000/svg"><g style="display:inline;enable-background:new"><path d="M8 .953c.526 0 .953.513.953 1.146V13.9c0 .633-.427 1.146-.953 1.146s-.953-.513-.953-1.146V2.1c0-.633.427-1.146.953-1.146Zm0 0"/><path d="M2.78.953C1.765.953.953 1.82.953 2.818v10.364c0 .998.812 1.865 1.827 1.865h10.44c1.015 0 1.827-.867 1.827-1.865V2.818c0-.998-.812-1.865-1.827-1.865Zm0 1.762h10.44c.03 0 .065.014.065.103v10.364c0 .09-.034.103-.065.103H2.78c-.03 0-.065-.014-.065-.103V2.818c0-.09.034-.103.065-.103Zm0 0"/><path d="M.953 8c0-.526.513-.953 1.146-.953H13.9c.633 0 1.146.427 1.146.953s-.513.953-1.146.953H2.1C1.466 8.953.953 8.526.953 8Zm0 0"/></g></svg>