<?xml version="1.0" encoding="UTF-8"?>
<svg height="128px" viewBox="0 0 128 128" width="128px" xmlns="http://www.w3.org/2000/svg" xmlns:xlink="http://www.w3.org/1999/xlink">
    <filter id="a" height="100%" width="100%" x="0%" y="0%">
        <feColorMatrix color-interpolation-filters="sRGB" values="0 0 0 0 1 0 0 0 0 1 0 0 0 0 1 0 0 0 1 0"/>
    </filter>
    <linearGradient id="b" gradientTransform="matrix(1 0 0 0.985745 -0 2.142548)" gradientUnits="userSpaceOnUse" x1="12.000025" x2="116.000031" y1="65.504761" y2="65.504761">
        <stop offset="0" stop-color="#613583"/>
        <stop offset="0.04" stop-color="#c061cb"/>
        <stop offset="0.07821" stop-color="#904ba7"/>
        <stop offset="0.25" stop-color="#613583"/>
        <stop offset="0.25" stop-color="#841016"/>
        <stop offset="0.5" stop-color="#841016"/>
        <stop offset="0.5" stop-color="#917908"/>
        <stop offset="0.75" stop-color="#917908"/>
        <stop offset="0.75" stop-color="#229656"/>
        <stop offset="0.92" stop-color="#229656"/>
        <stop offset="0.96" stop-color="#2bbf6e"/>
        <stop offset="1" stop-color="#229656"/>
    </linearGradient>
    <clipPath id="c">
        <rect height="128" width="128"/>
    </clipPath>
    <clipPath id="d">
        <rect height="128" width="128"/>
    </clipPath>
    <mask id="e">
        <g filter="url(#a)">
            <g clip-path="url(#d)" filter="url(#a)">
                <g clip-path="url(#c)">
                    <path d="m 20 17.425781 h 88 c 4.417969 0 8 3.53125 8 7.886719 v 82.800781 c 0 4.355469 -3.582031 7.886719 -8 7.886719 h -88 c -4.417969 0 -8 -3.53125 -8 -7.886719 v -82.800781 c 0 -4.355469 3.582031 -7.886719 8 -7.886719 z m 0 0" fill="url(#b)"/>
                    <path d="m 38 87.089844 h -26 v 17.023437 c 0 4.4375 3.566406 8.007813 8 8.007813 h 18 z m 0 0" fill="#9141ac"/>
                    <path d="m 38 87.089844 v 25.03125 h 26 v -25.03125 z m 0 0" fill="#e01b24"/>
                    <path d="m 38 62.0625 h -26 v 25.027344 h 26 z m 0 0" fill="#f6d32d"/>
                    <path d="m 38 62.0625 v 25.027344 h 26 v -25.027344 z m 0 0" fill="#ff7800"/>
                    <path d="m 38 37.03125 h -26 v 25.03125 h 26 z m 0 0" fill="#ff7800"/>
                    <path d="m 38 37.03125 v 25.03125 h 26 v -25.03125 z m 0 0" fill="#f6d32d"/>
                    <path d="m 38 12 h -18 c -4.433594 0 -8 3.570312 -8 8.011719 v 17.019531 h 26 z m 0 0" fill="#e01b24"/>
                    <path d="m 38 12 v 25.03125 h 26 v -25.03125 z m 0 0" fill="#9141ac"/>
                    <path d="m 90 87.089844 h -26 v 25.03125 h 26 z m 0 0" fill="#f6d32d"/>
                    <path d="m 90 87.089844 v 25.03125 h 18 c 4.433594 0 8 -3.570313 8 -8.007813 v -17.023437 z m 0 0" fill="#33d17a"/>
                    <path d="m 90 62.0625 h -26 v 25.027344 h 26 z m 0 0" fill="#33d17a"/>
                    <path d="m 90 62.0625 v 25.027344 h 26 v -25.027344 z m 0 0" fill="#3584e4"/>
                    <path d="m 90 37.03125 h -26 v 25.03125 h 26 z m 0 0" fill="#9141ac"/>
                    <path d="m 90 37.03125 v 25.03125 h 26 v -25.03125 z m 0 0" fill="#3584e4"/>
                    <path d="m 90 12 h -26 v 25.03125 h 26 z m 0 0" fill="#e01b24"/>
                    <path d="m 90 12 v 25.03125 h 26 v -17.019531 c 0 -4.441407 -3.566406 -8.011719 -8 -8.011719 z m 0 0" fill="#33d17a"/>
                </g>
            </g>
        </g>
    </mask>
    <mask id="f">
        <g filter="url(#a)">
            <rect fill-opacity="0.8" height="184.32" width="184.32" x="-28.16" y="-28.16"/>
        </g>
    </mask>
    <linearGradient id="g" gradientTransform="matrix(0 0.37 -0.98462 0 295.38501 -30.360001)" gradientUnits="userSpaceOnUse" x1="300" x2="428" y1="235" y2="235">
        <stop offset="0" stop-color="#f9f06b"/>
        <stop offset="1" stop-color="#f5c211"/>
    </linearGradient>
    <clipPath id="h">
        <rect height="128" width="128"/>
    </clipPath>
    <clipPath id="i">
        <rect height="128" width="128"/>
    </clipPath>
    <path d="m 20 17.425781 h 88 c 4.417969 0 8 3.53125 8 7.886719 v 82.800781 c 0 4.355469 -3.582031 7.886719 -8 7.886719 h -88 c -4.417969 0 -8 -3.53125 -8 -7.886719 v -82.800781 c 0 -4.355469 3.582031 -7.886719 8 -7.886719 z m 0 0" fill="url(#b)"/>
    <path d="m 38 87.089844 h -26 v 17.023437 c 0 4.4375 3.566406 8.007813 8 8.007813 h 18 z m 0 0" fill="#9141ac"/>
    <path d="m 38 87.089844 v 25.03125 h 26 v -25.03125 z m 0 0" fill="#e01b24"/>
    <path d="m 38 62.0625 h -26 v 25.027344 h 26 z m 0 0" fill="#f6d32d"/>
    <path d="m 38 62.0625 v 25.027344 h 26 v -25.027344 z m 0 0" fill="#ff7800"/>
    <path d="m 38 37.03125 h -26 v 25.03125 h 26 z m 0 0" fill="#ff7800"/>
    <path d="m 38 37.03125 v 25.03125 h 26 v -25.03125 z m 0 0" fill="#f6d32d"/>
    <path d="m 38 12 h -18 c -4.433594 0 -8 3.570312 -8 8.011719 v 17.019531 h 26 z m 0 0" fill="#e01b24"/>
    <path d="m 38 12 v 25.03125 h 26 v -25.03125 z m 0 0" fill="#9141ac"/>
    <path d="m 90 87.089844 h -26 v 25.03125 h 26 z m 0 0" fill="#f6d32d"/>
    <path d="m 90 87.089844 v 25.03125 h 18 c 4.433594 0 8 -3.570313 8 -8.007813 v -17.023437 z m 0 0" fill="#33d17a"/>
    <path d="m 90 62.0625 h -26 v 25.027344 h 26 z m 0 0" fill="#33d17a"/>
    <path d="m 90 62.0625 v 25.027344 h 26 v -25.027344 z m 0 0" fill="#3584e4"/>
    <path d="m 90 37.03125 h -26 v 25.03125 h 26 z m 0 0" fill="#9141ac"/>
    <path d="m 90 37.03125 v 25.03125 h 26 v -25.03125 z m 0 0" fill="#3584e4"/>
    <path d="m 90 12 h -26 v 25.03125 h 26 z m 0 0" fill="#e01b24"/>
    <path d="m 90 12 v 25.03125 h 26 v -17.019531 c 0 -4.441407 -3.566406 -8.011719 -8 -8.011719 z m 0 0" fill="#33d17a"/>
    <g mask="url(#e)">
        <g clip-path="url(#i)">
            <g mask="url(#f)">
                <g clip-path="url(#h)">
                    <path d="m 128 80.640625 v 47.359375 h -128 v -47.359375 z m 0 0" fill="url(#g)"/>
                    <path d="m 13.308594 80.640625 l 47.355468 47.359375 h 21.214844 l -47.359375 -47.359375 z m 42.421875 0 l 47.363281 47.359375 h 21.214844 l -47.363282 -47.359375 z m 42.429687 0 l 29.839844 29.839844 v -21.210938 l -8.628906 -8.628906 z m -98.160156 7.90625 v 21.214844 l 18.238281 18.238281 h 21.214844 z m 0 0"/>
                </g>
            </g>
        </g>
    </g>
</svg>
