<?xml version="1.0" encoding="UTF-8" standalone="no"?>
<svg
   height="128px"
   viewBox="0 0 128 128"
   width="128px"
   version="1.1"
   id="svg26"
   sodipodi:docname="io.github.tfuxu.floodit.svg"
   inkscape:version="1.3.2 (091e20ef0f, 2023-11-25)"
   xmlns:inkscape="http://www.inkscape.org/namespaces/inkscape"
   xmlns:sodipodi="http://sodipodi.sourceforge.net/DTD/sodipodi-0.dtd"
   xmlns="http://www.w3.org/2000/svg"
   xmlns:svg="http://www.w3.org/2000/svg">
  <defs
     id="defs26">
    <linearGradient
       id="a-3"
       gradientUnits="userSpaceOnUse"
       x1="12.000025"
       x2="116.00003"
       y1="65.504761"
       y2="65.504761"
       gradientTransform="matrix(1,0,0,0.98574548,-4e-7,174.14254)">
      <stop
         offset="0"
         stop-color="#917908"
         id="stop1-6"
         style="stop-color:#613583;stop-opacity:1;" />
      <stop
         offset="0.04"
         stop-color="#c1a10b"
         id="stop2-7"
         style="stop-color:#c061cb;stop-opacity:1;" />
      <stop
         offset="0.07820995"
         stop-color="#c1a10b"
         id="stop13"
         style="stop-color:#904ba7;stop-opacity:1;" />
      <stop
         offset="0.25"
         stop-color="#917908"
         id="stop3-5"
         style="stop-color:#613583;stop-opacity:1;" />
      <stop
         offset="0.25"
         stop-color="#841016"
         id="stop4-3" />
      <stop
         offset="0.5"
         stop-color="#841016"
         id="stop5-5" />
      <stop
         offset="0.5"
         stop-color="#917908"
         id="stop6-6" />
      <stop
         offset="0.75"
         stop-color="#917908"
         id="stop7-2" />
      <stop
         offset="0.75"
         stop-color="#229656"
         id="stop8-9" />
      <stop
         offset="0.92000002"
         stop-color="#2bbf6e"
         id="stop9-1"
         style="stop-color:#229656;stop-opacity:1;" />
      <stop
         offset="0.95999998"
         stop-color="#2bbf6e"
         id="stop14"
         style="stop-color:#2bbf6e;stop-opacity:1;" />
      <stop
         offset="1"
         stop-color="#229656"
         id="stop10-2" />
    </linearGradient>
  </defs>
  <sodipodi:namedview
     id="namedview26"
     pagecolor="#ffffff"
     bordercolor="#000000"
     borderopacity="0.25"
     inkscape:showpageshadow="2"
     inkscape:pageopacity="0.0"
     inkscape:pagecheckerboard="0"
     inkscape:deskcolor="#d1d1d1"
     inkscape:zoom="5.7265625"
     inkscape:cx="64"
     inkscape:cy="64"
     inkscape:window-width="1680"
     inkscape:window-height="981"
     inkscape:window-x="0"
     inkscape:window-y="0"
     inkscape:window-maximized="1"
     inkscape:current-layer="svg26" />
  <linearGradient
     id="a"
     gradientUnits="userSpaceOnUse"
     x1="12.000025"
     x2="116.000028"
     y1="65.504764"
     y2="65.504764">
    <stop
       offset="0"
       stop-color="#917908"
       id="stop1" />
    <stop
       offset="0.0522017"
       stop-color="#c1a10b"
       id="stop2" />
    <stop
       offset="0.25"
       stop-color="#917908"
       id="stop3" />
    <stop
       offset="0.25"
       stop-color="#841016"
       id="stop4" />
    <stop
       offset="0.5"
       stop-color="#841016"
       id="stop5" />
    <stop
       offset="0.5"
       stop-color="#917908"
       id="stop6" />
    <stop
       offset="0.75"
       stop-color="#917908"
       id="stop7" />
    <stop
       offset="0.75"
       stop-color="#229656"
       id="stop8" />
    <stop
       offset="0.95"
       stop-color="#2bbf6e"
       id="stop9" />
    <stop
       offset="1"
       stop-color="#229656"
       id="stop10" />
  </linearGradient>
  <g
     id="g2"
     style="display:inline;enable-background:new"
     transform="translate(0,-172)">
    <path
       d="m 20,189.42545 h 88 c 4.41797,0 8,3.53097 8,7.88597 v 82.80262 C 116,284.46903 112.41797,288 108,288 H 20 c -4.417969,0 -8,-3.53097 -8,-7.88596 v -82.80262 c 0,-4.355 3.582031,-7.88597 8,-7.88597 z m 0,0"
       fill="url(#a)"
       id="path10"
       style="fill:url(#a-3);stroke-width:0.992847" />
    <path
       d="M 38,259.0916 H 12 v 17.02075 c 0,4.43902 3.566406,8.00978 8,8.00978 h 18 z m 0,0"
       fill="#f6d32d"
       id="path11"
       style="fill:#9141ac;fill-opacity:1;stroke-width:1.00061" />
    <path
       d="m 38,259.0916 v 25.03053 H 64 V 259.0916 Z m 0,0"
       fill="#e01b24"
       id="path12"
       style="stroke-width:1.00061" />
    <path
       d="M 38,234.06106 H 12 v 25.03054 h 26 z m 0,0"
       fill="#f6d32d"
       id="path13"
       style="fill:#f6d32d;fill-opacity:1;stroke-width:1.00061" />
    <path
       d="m 38,234.06106 v 25.03054 h 26 v -25.03054 z m 0,0"
       fill="#ff7800"
       id="path14"
       style="stroke-width:1.00061" />
    <path
       d="M 38,209.03054 H 12 v 25.03052 h 26 z m 0,0"
       fill="#ff7800"
       id="path15"
       style="stroke-width:1.00061" />
    <path
       d="m 38,209.03054 v 25.03052 h 26 v -25.03052 z m 0,0"
       fill="#f6d32d"
       id="path16"
       style="stroke-width:1.00061" />
    <path
       d="M 38,184 H 20 c -4.433594,0 -8,3.57076 -8,8.00977 v 17.02077 h 26 z m 0,0"
       fill="#e01b24"
       id="path17"
       style="stroke-width:1.00061" />
    <path
       d="m 38,184 v 25.03054 H 64 V 184 Z m 0,0"
       fill="#9141ac"
       id="path18"
       style="stroke-width:1.00061" />
    <path
       d="M 90,259.0916 H 64 v 25.03053 h 26 z m 0,0"
       fill="#f6d32d"
       id="path19"
       style="stroke-width:1.00061" />
    <path
       d="m 90,259.0916 v 25.03053 h 18 c 4.43359,0 8,-3.57076 8,-8.00978 V 259.0916 Z m 0,0"
       fill="#33d17a"
       id="path20"
       style="stroke-width:1.00061" />
    <path
       d="M 90,234.06106 H 64 v 25.03054 h 26 z m 0,0"
       fill="#33d17a"
       id="path21"
       style="stroke-width:1.00061" />
    <path
       d="m 90,234.06106 v 25.03054 h 26 v -25.03054 z m 0,0"
       fill="#3584e4"
       id="path22"
       style="stroke-width:1.00061" />
    <path
       d="M 90,209.03054 H 64 v 25.03052 h 26 z m 0,0"
       fill="#9141ac"
       id="path23"
       style="stroke-width:1.00061" />
    <path
       d="m 90,209.03054 v 25.03052 h 26 v -25.03052 z m 0,0"
       fill="#3584e4"
       id="path24"
       style="stroke-width:1.00061" />
    <path
       d="M 90,184 H 64 v 25.03054 h 26 z m 0,0"
       fill="#e01b24"
       id="path25"
       style="stroke-width:1.00061" />
    <path
       d="m 90,184 v 25.03054 h 26 V 192.00977 C 116,187.57076 112.43359,184 108,184 Z m 0,0"
       fill="#33d17a"
       id="path26"
       style="stroke-width:1.00061" />
  </g>
</svg>
